<svg width="32" height="32" viewBox="0 0 32 32" fill="none" xmlns="http://www.w3.org/2000/svg">
  <rect width="32" height="32" rx="6" fill="url(#gradient)"/>
  <path d="M8 10C8 8.89543 8.89543 8 10 8H16C17.1046 8 18 8.89543 18 10V14C18 15.1046 17.1046 16 16 16H10C8.89543 16 8 15.1046 8 14V10Z" fill="white" fill-opacity="0.9"/>
  <path d="M14 20C14 18.8954 14.8954 18 16 18H22C23.1046 18 24 18.8954 24 20V22C24 23.1046 23.1046 24 22 24H16C14.8954 24 14 23.1046 14 22V20Z" fill="white" fill-opacity="0.7"/>
  <path d="M8 20C8 18.8954 8.89543 18 10 18H12C13.1046 18 14 18.8954 14 20V22C14 23.1046 13.1046 24 12 24H10C8.89543 24 8 23.1046 8 22V20Z" fill="white" fill-opacity="0.7"/>
  <circle cx="11" cy="11" r="1" fill="#EF4444"/>
  <defs>
    <linearGradient id="gradient" x1="0" y1="0" x2="32" y2="32" gradientUnits="userSpaceOnUse">
      <stop stop-color="#EF4444"/>
      <stop offset="1" stop-color="#DC2626"/>
    </linearGradient>
  </defs>
</svg> 